<svg xmlns="http://www.w3.org/2000/svg" viewBox="0 0 100 100">
  <defs>
    <radialGradient id="sun" cx="50%" cy="43%" r="60%">
      <stop offset="0%" stop-color="#fde047"/>
      <stop offset="100%" stop-color="#f59e0b"/>
    </radialGradient>
  </defs>
  <g stroke="#f59e0b" stroke-width="9" stroke-linecap="round">
    <line x1="50" y1="4" x2="50" y2="17"/>
    <line x1="50" y1="4" x2="50" y2="17" transform="rotate(30 50 50)"/>
    <line x1="50" y1="4" x2="50" y2="17" transform="rotate(60 50 50)"/>
    <line x1="50" y1="4" x2="50" y2="17" transform="rotate(90 50 50)"/>
    <line x1="50" y1="4" x2="50" y2="17" transform="rotate(120 50 50)"/>
    <line x1="50" y1="4" x2="50" y2="17" transform="rotate(150 50 50)"/>
    <line x1="50" y1="4" x2="50" y2="17" transform="rotate(180 50 50)"/>
    <line x1="50" y1="4" x2="50" y2="17" transform="rotate(210 50 50)"/>
    <line x1="50" y1="4" x2="50" y2="17" transform="rotate(240 50 50)"/>
    <line x1="50" y1="4" x2="50" y2="17" transform="rotate(270 50 50)"/>
    <line x1="50" y1="4" x2="50" y2="17" transform="rotate(300 50 50)"/>
    <line x1="50" y1="4" x2="50" y2="17" transform="rotate(330 50 50)"/>
  </g>
  <circle cx="50" cy="50" r="24" fill="url(#sun)"/>
</svg>
